{
    "asset" : {
        "generator" : "Khronos glTF Blender I/O v1.3.48",
        "version" : "2.0"
    },
    "scene" : 0,
    "scenes" : [
        {
            "name" : "Scene",
            "nodes" : [
                0,
                1
            ]
        }
    ],
    "nodes" : [
        {
            "mesh" : 0,
            "name" : "node-0",
            "rotation" : [
                -0.037658773362636566,
                0.6851718425750732,
                0.03564891964197159,
                0.7265332937240601
            ],
            "scale" : [
                0.0700467973947525,
                0.0700467973947525,
                0.0700467973947525
            ]
        },
        {
            "name" : "Light",
            "rotation" : [
                0.16907575726509094,
                0.7558803558349609,
                -0.27217137813568115,
                0.570947527885437
            ],
            "translation" : [
                4.076245307922363,
                5.903861999511719,
                -1.0054539442062378
            ]
        }
    ],
    "materials" : [
        {
            "doubleSided" : true,
            "emissiveFactor" : [
                0,
                0,
                0
            ],
            "name" : "Phone",
            "pbrMetallicRoughness" : {
                "baseColorFactor" : [
                    0.5879999995231628,
                    0.5879999995231628,
                    0.5879999995231628,
                    1
                ],
                "baseColorTexture" : {
                    "index" : 0,
                    "texCoord" : 0
                },
                "metallicFactor" : 0,
                "roughnessFactor" : 0.9699476361274719
            }
        }
    ],
    "meshes" : [
        {
            "name" : "buffer-0-mesh-0",
            "primitives" : [
                {
                    "attributes" : {
                        "POSITION" : 0,
                        "NORMAL" : 1,
                        "TEXCOORD_0" : 2
                    },
                    "indices" : 3,
                    "material" : 0
                }
            ]
        }
    ],
    "textures" : [
        {
            "source" : 0
        }
    ],
    "images" : [
        {
            "bufferView" : 4,
            "mimeType" : "image/png",
            "name" : "phone"
        }
    ],
    "accessors" : [
        {
            "bufferView" : 0,
            "componentType" : 5126,
            "count" : 742,
            "max" : [
                7.568600177764893,
                30.248699188232422,
                1.531599998474121
            ],
            "min" : [
                -6.889400005340576,
                -0.06109999865293503,
                0.03060000017285347
            ],
            "type" : "VEC3"
        },
        {
            "bufferView" : 1,
            "componentType" : 5126,
            "count" : 742,
            "type" : "VEC3"
        },
        {
            "bufferView" : 2,
            "componentType" : 5126,
            "count" : 742,
            "type" : "VEC2"
        },
        {
            "bufferView" : 3,
            "componentType" : 5123,
            "count" : 3408,
            "type" : "SCALAR"
        }
    ],
    "bufferViews" : [
        {
            "buffer" : 0,
            "byteLength" : 8904,
            "byteOffset" : 0
        },
        {
            "buffer" : 0,
            "byteLength" : 8904,
            "byteOffset" : 8904
        },
        {
            "buffer" : 0,
            "byteLength" : 5936,
            "byteOffset" : 17808
        },
        {
            "buffer" : 0,
            "byteLength" : 6816,
            "byteOffset" : 23744
        },
        {
            "buffer" : 0,
            "byteLength" : 251899,
            "byteOffset" : 30560
        }
    ],
    "buffers" : [
        {
            "byteLength" : 282460,
            "uri" : "data:application/octet-stream;base64,"
        }
    ]
}
